<svg id="Layer_1" data-name="Layer 1" xmlns="http://www.w3.org/2000/svg" xmlns:xlink="http://www.w3.org/1999/xlink" viewBox="0 0 16.35 17.68"><defs><style>.cls-1{fill:none;}.cls-2{clip-path:url(#clip-path);}.cls-3{fill:#4d4d4f;}</style><clipPath id="clip-path" transform="translate(-0.82 -0.16)"><rect class="cls-1" x="0.82" y="0.16" width="16.35" height="17.68"/></clipPath></defs><title>search-darkgrey</title><g class="cls-2"><path class="cls-3" d="M1.63,6.69A5.67,5.67,0,1,1,7.3,12.4,5.7,5.7,0,0,1,1.63,6.69M17.07,17.13l-5.21-5.81A6.53,6.53,0,0,0,7.3.16a6.53,6.53,0,0,0,0,13.05,6.42,6.42,0,0,0,3.93-1.34l5.24,5.83a.4.4,0,0,0,.3.13.41.41,0,0,0,.28-.12.43.43,0,0,0,0-.59" transform="translate(-0.82 -0.16)"/></g></svg>